<?xml version="1.0" standalone="no"?>
<!DOCTYPE svg PUBLIC "-//W3C//DTD SVG 20010904//EN"
 "http://www.w3.org/TR/2001/REC-SVG-20010904/DTD/svg10.dtd">
<svg version="1.0" xmlns="http://www.w3.org/2000/svg"
 width="1024.000000pt" height="1024.000000pt" viewBox="0 0 1024.000000 1024.000000"
 preserveAspectRatio="xMidYMid meet">
<metadata>
Created by potrace 1.14, written by Peter Selinger 2001-2017
</metadata>
<g transform="translate(0.000000,1024.000000) scale(0.100000,-0.100000)"
fill="#000000" stroke="none">
<path d="M0 5120 l0 -5120 5120 0 5120 0 0 5120 0 5120 -5120 0 -5120 0 0
-5120z m5215 4470 c-3 -5 -2 -10 4 -10 5 0 17 -3 25 -6 13 -5 15 -2 9 12 -6
17 -5 17 10 5 9 -7 14 -17 12 -22 -3 -4 3 -13 14 -18 13 -7 21 -8 24 -1 3 6 4
5 3 -2 -2 -7 8 -28 22 -47 66 -88 70 -214 10 -278 l-21 -23 23 -25 c13 -14 30
-23 38 -20 7 2 10 1 7 -4 -3 -5 3 -12 14 -16 12 -4 35 5 64 24 64 44 71 55 56
83 -22 39 -17 157 8 204 48 91 141 140 246 132 73 -6 113 -24 160 -73 33 -34
35 -35 63 -20 71 36 190 23 260 -30 17 -13 34 -22 38 -20 3 3 4 2 1 -1 -2 -4
5 -19 15 -35 78 -109 79 -230 2 -344 -14 -22 -25 -43 -24 -47 1 -5 -2 -7 -6
-5 -4 1 -29 -9 -54 -23 -36 -19 -49 -32 -54 -55 -13 -60 -74 -197 -110 -247
l-37 -52 27 -23 c15 -13 32 -21 37 -17 5 3 8 1 7 -4 -2 -5 17 -26 42 -47 54
-45 104 -112 135 -181 22 -49 24 -51 101 -77 44 -15 89 -24 100 -21 12 3 25 1
28 -4 4 -6 -3 -8 -16 -6 -13 2 15 -9 62 -26 47 -17 91 -28 98 -25 7 3 11 1 8
-3 -7 -12 101 -45 116 -36 6 4 8 3 5 -3 -4 -6 17 -20 49 -32 65 -24 68 -25 58
-9 -4 7 -3 8 5 4 6 -4 9 -11 6 -16 -7 -12 44 -28 82 -25 18 1 30 -2 28 -6 -3
-4 -2 -9 2 -12 8 -4 -4 -1 -34 9 -10 3 24 -15 76 -40 51 -25 98 -43 105 -39 6
3 8 2 3 -2 -9 -11 173 -106 186 -98 6 4 7 1 2 -7 -6 -10 -4 -12 9 -7 9 4 15 3
12 -1 -7 -12 52 -44 66 -36 6 4 8 3 5 -3 -7 -12 110 -79 130 -75 8 2 12 -1 9
-7 -7 -11 33 -37 49 -32 5 1 7 -1 2 -5 -9 -9 163 -125 175 -118 5 3 7 1 6 -5
-2 -6 60 -59 137 -116 l139 -105 293 0 293 0 0 -2005 0 -2005 295 -2 294 -3
-131 -225 c-243 -419 -349 -611 -342 -622 4 -6 3 -8 -3 -5 -6 4 -23 -23 -40
-62 l-30 -68 23 -144 c13 -79 26 -154 29 -167 5 -22 6 -22 210 -22 128 0 205
-4 205 -10 0 -5 -18 -39 -40 -74 -21 -36 -71 -119 -109 -185 l-70 -121 93
-190 c51 -104 97 -186 101 -182 5 4 5 2 2 -4 -3 -6 7 -38 23 -70 16 -32 30
-63 30 -68 0 -5 -93 -6 -222 -2 -178 5 -915 10 -1041 7 -19 -1 -26 -5 -21 -13
4 -7 3 -8 -4 -4 -6 4 -89 -18 -184 -48 -219 -69 -342 -104 -544 -155 -717
-180 -1626 -272 -2379 -242 -163 6 -301 9 -307 5 -7 -4 -8 -3 -4 4 5 9 -6 12
-38 12 -25 0 -132 9 -238 20 -658 70 -1108 162 -1756 361 l-223 68 -157 -4
c-379 -11 -1092 -14 -1092 -6 0 5 25 59 56 121 30 62 53 119 50 127 -3 8 -2
12 2 9 12 -7 64 103 56 116 -5 7 -2 8 6 3 10 -6 12 -4 7 8 -3 10 -3 17 1 17 5
0 21 26 36 59 28 58 28 59 10 89 -10 17 -22 28 -27 25 -6 -3 -7 -1 -3 5 11 19
-12 52 -32 46 -13 -5 -14 -4 -3 4 11 8 10 15 -5 40 -10 17 -21 29 -25 26 -4
-2 -11 1 -15 7 -4 8 -3 9 4 5 21 -12 13 8 -24 67 -20 33 -42 56 -48 54 -7 -3
-13 1 -13 9 0 7 5 11 11 8 6 -3 3 1 -6 9 -10 8 -18 22 -18 31 0 14 20 16 168
18 92 1 185 2 206 3 22 0 41 5 43 13 3 8 -2 10 -14 6 -16 -5 -16 -4 -1 5 10 7
14 19 10 33 -3 14 -2 19 6 14 7 -4 12 -1 12 8 0 9 -6 16 -12 17 -10 0 -10 2
-1 5 7 3 10 11 7 19 -3 7 -1 16 5 20 6 3 8 17 5 31 -3 13 -2 24 4 24 5 0 13
31 18 68 8 58 7 75 -8 108 -10 21 -22 38 -28 36 -7 -1 -9 2 -5 8 8 13 -49 126
-193 382 -63 114 -120 205 -124 202 -5 -3 -7 -2 -6 3 1 4 -2 19 -6 32 -7 19
-10 21 -18 10 -8 -11 -9 -10 -4 3 3 11 -22 62 -64 134 -39 65 -70 121 -70 126
0 4 133 8 295 8 l295 0 2 2003 3 2002 294 3 c288 2 331 7 314 35 -3 6 -1 7 6
3 6 -4 19 -2 27 5 12 10 12 14 2 20 -9 6 -7 8 7 7 25 -2 167 101 158 115 -3 6
-1 7 5 3 13 -8 175 102 167 114 -3 4 1 7 8 6 6 0 49 21 94 48 73 45 80 51 65
63 -15 12 -14 13 5 4 18 -9 33 -4 92 31 38 23 67 46 64 52 -3 5 -1 6 5 2 6 -3
22 -1 37 6 25 11 25 13 9 25 -10 7 -13 13 -8 13 6 0 15 -5 21 -11 7 -7 28 -2
72 21 34 17 60 34 57 38 -3 5 0 14 6 22 8 12 9 12 4 -2 -3 -10 -1 -18 4 -18
18 0 59 23 55 30 -3 4 1 7 8 6 22 -2 196 77 190 87 -3 6 -1 7 5 3 14 -9 155
48 145 59 -4 4 -3 5 4 1 17 -10 64 4 56 17 -3 6 -1 7 6 3 16 -10 53 3 45 16
-4 7 -2 8 4 4 14 -9 63 4 57 14 -3 5 4 6 15 3 14 -4 20 0 20 11 0 9 8 16 18
16 15 0 15 -2 2 -11 -13 -10 -13 -10 0 -6 124 38 131 41 113 49 -12 6 -9 6 11
3 36 -8 129 22 119 38 -5 8 -2 8 9 0 13 -11 18 -7 34 29 10 24 18 47 16 51 -5
15 9 47 19 47 6 0 5 -9 -1 -22 -8 -17 -4 -15 14 7 14 17 26 35 26 40 0 6 -5 3
-11 -5 -9 -13 -10 -13 -6 0 2 8 9 14 15 13 6 -2 28 17 49 40 21 24 46 46 56
50 11 4 15 12 11 18 -4 8 -3 9 4 5 7 -4 12 -4 12 1 0 4 14 14 30 21 17 8 30
17 30 22 0 17 -66 116 -76 113 -6 -2 -11 3 -11 11 0 8 4 13 9 10 4 -3 3 7 -4
23 -15 35 -32 56 -23 28 6 -16 5 -17 -4 -5 -6 8 -8 23 -5 34 4 13 3 16 -6 11
-8 -5 -11 -4 -6 3 3 6 -1 29 -10 51 -12 32 -28 47 -67 68 -28 16 -56 27 -61
25 -6 -2 -8 0 -3 4 8 9 -22 46 -33 39 -4 -2 -7 1 -7 8 -1 20 -42 113 -43 97 0
-13 -1 -13 -10 0 -13 20 -10 113 4 122 8 5 8 12 0 25 -13 20 4 63 25 63 8 0
11 6 7 16 -3 8 -2 13 3 9 12 -7 57 55 53 72 -2 7 3 10 12 7 8 -3 33 4 56 16
62 31 124 36 192 13 l57 -20 37 38 c19 20 32 39 27 41 -4 3 -2 3 4 2 7 -2 31
3 54 11 129 46 284 -24 325 -147 16 -48 17 -201 2 -191 -21 12 -4 -17 24 -43
17 -16 28 -23 24 -16 -12 20 4 52 25 52 10 0 19 -5 19 -11 0 -7 9 -9 24 -5 14
3 26 1 28 -5 3 -9 9 -8 24 1 20 12 20 13 -3 59 -43 87 -22 192 52 260 57 52
82 62 175 71 41 4 76 8 78 8 2 1 0 -2 -3 -8z m-875 -63 c0 -2 -12 -14 -27 -28
-24 -22 -23 -11 2 18 9 11 25 17 25 10z m1157 -139 c-3 -8 -6 -5 -6 6 -1 11 2
17 5 13 3 -3 4 -12 1 -19z m-710 -95 c-3 -10 -5 -4 -5 12 0 17 2 24 5 18 2 -7
2 -21 0 -30z m113 -43 c0 -5 -5 -10 -11 -10 -5 0 -7 5 -4 10 3 6 8 10 11 10 2
0 4 -4 4 -10z m-675 -600 c-3 -4 0 -10 7 -12 8 -3 7 -6 -3 -10 -10 -4 -15 2
-17 19 -1 14 2 22 8 18 6 -4 8 -10 5 -15z m2099 -340 c-7 -6 -24 22 -23 40 0
9 6 5 14 -10 7 -14 11 -27 9 -30z m-2429 -10 c3 -5 1 -10 -4 -10 -6 0 -11 5
-11 10 0 6 2 10 4 10 3 0 8 -4 11 -10z m2492 4 c-3 -3 -12 -4 -19 -1 -8 3 -5
6 6 6 11 1 17 -2 13 -5z m-2597 -35 c0 -11 -29 -19 -34 -10 -3 5 -3 10 -1 13
8 7 35 5 35 -3z m2837 -55 c-3 -3 -12 -4 -19 -1 -8 3 -5 6 6 6 11 1 17 -2 13
-5z m648 -282 c-3 -3 -11 0 -18 7 -9 10 -8 11 6 5 10 -3 15 -9 12 -12z m-5158
-548 c-3 -3 -12 -4 -19 -1 -8 3 -5 6 6 6 11 1 17 -2 13 -5z m6386 -1 c-13 -2
-33 -2 -45 0 -13 2 -3 4 22 4 25 0 35 -2 23 -4z m-6966 -630 c-3 -10 -5 -2 -5
17 0 19 2 27 5 18 2 -10 2 -26 0 -35z m-10 -3355 c-3 -8 -6 -5 -6 6 -1 11 2
17 5 13 3 -3 4 -12 1 -19z m-64 -973 c4 -8 1 -17 -6 -21 -7 -4 -9 -4 -5 1 4 4
3 14 -3 22 -7 8 -8 13 -1 13 5 0 12 -7 15 -15z m21 -60 c-4 -8 -8 -15 -10 -15
-2 0 -4 7 -4 15 0 8 4 15 10 15 5 0 7 -7 4 -15z m-84 -295 c13 -8 13 -10 -2
-10 -9 0 -20 5 -23 10 -8 13 5 13 25 0z m-184 -467 c-8 -15 -15 -22 -16 -15 0
14 22 53 28 47 2 -2 -3 -16 -12 -32z m5151 -859 c-3 -3 -12 -4 -19 -1 -8 3 -5
6 6 6 11 1 17 -2 13 -5z m-1529 -81 c-10 -2 -28 -2 -40 0 -13 2 -5 4 17 4 22
1 32 -1 23 -4z"/>
<path d="M5110 9407 c-65 -22 -80 -100 -29 -148 29 -27 30 -30 18 -66 -46
-145 -132 -233 -227 -233 -86 0 -210 98 -267 210 -24 47 -26 58 -16 85 34 96
-22 172 -106 144 -48 -15 -69 -59 -54 -111 7 -21 23 -45 36 -54 23 -15 25 -22
25 -100 0 -52 -4 -84 -10 -84 -18 0 -71 30 -136 76 -61 43 -62 44 -57 86 14
141 -191 176 -213 37 -7 -45 28 -98 75 -114 49 -16 84 -63 151 -200 69 -142
109 -275 105 -357 l-2 -57 -59 -45 c-32 -24 -95 -88 -139 -141 -132 -161 -216
-219 -440 -301 -646 -236 -994 -424 -1452 -786 l-111 -88 -221 0 -221 0 0
-1984 c0 -1882 -1 -1985 -17 -1990 -10 -2 -112 -12 -228 -22 -115 -10 -212
-19 -214 -21 -2 -1 3 -11 11 -20 34 -40 196 -306 255 -420 85 -162 103 -226
110 -388 6 -147 -10 -263 -53 -394 l-26 -79 -45 -6 c-25 -3 -77 -6 -114 -6
-38 0 -69 -3 -69 -6 0 -3 21 -35 48 -71 26 -36 46 -70 44 -75 -1 -5 -38 -80
-81 -167 l-78 -157 488 4 487 5 129 -41 c676 -213 1196 -319 1933 -391 348
-35 983 -45 1325 -22 805 54 1418 171 2170 411 l130 42 482 -4 483 -4 -32 56
c-71 126 -138 258 -138 272 0 9 21 44 46 78 25 34 42 65 39 68 -4 4 -53 9
-110 10 l-104 4 -14 36 c-8 21 -25 78 -38 127 -21 80 -24 112 -24 280 l0 190
33 85 c36 94 117 239 250 448 l88 138 -210 18 c-116 10 -219 22 -228 28 -17 8
-18 113 -18 1988 l0 1980 -222 0 -223 0 -70 56 c-372 298 -564 422 -930 600
-104 50 -253 115 -330 143 -422 156 -406 145 -659 425 -64 71 -112 112 -164
142 -1 1 3 13 9 27 9 21 9 30 -1 41 -10 13 -8 25 8 68 11 29 37 100 57 158 19
58 60 150 89 205 48 90 57 100 87 107 47 9 79 49 79 99 0 81 -68 126 -142 95
-54 -23 -72 -55 -65 -116 6 -47 4 -50 -33 -84 -48 -44 -137 -89 -157 -82 -13
5 -15 21 -11 90 4 73 8 88 31 116 64 75 2 180 -89 150 -62 -21 -85 -101 -43
-146 l21 -23 -35 -64 c-40 -70 -108 -139 -180 -181 -95 -56 -200 -16 -264 100
-44 80 -53 147 -26 177 45 48 36 115 -18 142 -33 17 -33 17 -79 2z m48 -33
c40 -28 25 -65 -31 -79 -30 -8 -57 8 -57 32 0 15 44 63 57 63 5 0 19 -7 31
-16z m-627 -4 c24 -13 24 -25 0 -49 -10 -10 -24 -27 -29 -37 -15 -27 -46 -6
-50 34 -2 22 3 34 20 46 26 19 33 19 59 6z m1253 -9 c16 -18 13 -51 -5 -51 -5
0 -18 -9 -29 -20 -16 -16 -25 -18 -40 -10 -28 15 -25 54 6 79 33 26 46 26 68
2z m-1575 -80 c17 -16 31 -38 31 -50 0 -32 -17 -25 -25 12 l-8 32 -6 -30 c-11
-53 -101 -59 -101 -6 0 14 56 70 71 71 4 0 21 -13 38 -29z m1914 -2 c21 -28
11 -55 -27 -73 -41 -19 -74 -11 -82 21 -7 25 21 67 37 57 5 -3 9 0 9 5 0 19
48 12 63 -10z m-398 -171 c-15 -159 -22 -178 -71 -178 -28 0 -30 -8 -9 -36 9
-12 12 -32 8 -55 l-5 -37 100 -1 c76 0 101 3 105 13 7 18 -1 26 -27 27 -19 0
-18 2 4 10 16 6 38 31 58 68 17 32 32 61 32 64 0 2 -17 -4 -39 -15 -72 -36
-141 -33 -141 5 0 5 8 3 18 -7 17 -15 23 -15 59 -2 62 22 106 46 131 74 35 37
35 22 0 -43 -17 -33 -44 -95 -60 -140 l-27 -80 -715 -3 -714 -2 -6 26 c-9 33
-48 114 -111 229 -42 77 -46 88 -25 73 99 -69 211 -124 234 -115 18 7 30 83
23 140 -5 35 -5 39 6 23 45 -70 135 -171 179 -200 28 -20 76 -41 104 -47 49
-11 56 -10 108 15 68 33 136 108 167 181 12 30 26 55 30 55 3 0 9 -17 13 -37
11 -67 66 -153 121 -191 44 -30 56 -34 101 -30 103 9 231 98 309 217 22 33 41
61 43 61 2 0 0 -28 -3 -62z m-367 -395 c392 -5 482 -9 482 -20 0 -10 -53 -13
-280 -13 l-280 0 0 -50 0 -50 266 0 c208 0 265 -3 262 -12 -4 -10 -148 -14
-667 -16 -729 -2 -685 -6 -662 60 10 27 8 34 -9 50 -20 19 -26 39 -13 51 8 9
290 9 901 0z m-752 -274 c33 -9 44 -16 40 -26 -3 -8 -2 -23 4 -32 9 -17 3 -19
-68 -23 -94 -6 -138 -26 -158 -74 -22 -52 -5 -103 53 -153 25 -23 55 -41 67
-41 16 0 -7 -29 -95 -117 -64 -65 -130 -139 -148 -165 -35 -53 -111 -206 -111
-224 0 -7 -24 -48 -53 -91 -50 -73 -157 -250 -171 -283 -21 -49 11 109 39 195
43 133 91 235 165 356 33 54 60 101 60 105 0 24 -200 -200 -248 -276 -51 -82
-4 74 54 177 71 127 184 236 305 294 l44 20 -65 -5 c-36 -3 -97 -16 -137 -29
l-72 -24 19 26 c24 34 96 102 138 130 22 15 41 21 56 17 23 -6 23 -4 18 39 -6
60 20 128 61 157 31 22 119 57 145 58 7 0 33 -5 58 -11z m1207 -5 c78 -26 137
-105 137 -184 0 -22 5 -40 11 -40 29 0 208 -164 194 -178 -2 -3 -24 2 -47 11
-49 19 -210 58 -215 53 -2 -2 16 -15 40 -29 176 -103 289 -241 353 -429 26
-78 20 -88 -15 -23 -25 47 -169 208 -202 226 -13 7 -5 -13 27 -65 57 -96 119
-248 139 -342 16 -76 19 -230 5 -274 -6 -23 -8 -22 -14 15 -4 22 -11 67 -17
100 -36 208 -162 460 -355 712 l-64 83 40 61 c70 108 64 171 -18 209 -33 16
-58 21 -89 17 -40 -4 -43 -3 -43 19 0 15 10 29 28 38 l27 15 -28 1 c-16 0 -26
4 -22 10 9 15 75 12 128 -6z m-779 -91 c29 -9 66 -32 93 -58 l45 -43 29 33
c35 40 94 70 167 86 81 17 116 6 184 -59 57 -54 143 -170 134 -180 -3 -2 -17
5 -33 15 -53 37 -54 35 -9 -27 57 -77 74 -127 57 -169 -24 -57 -168 -168 -190
-145 -10 10 -141 234 -141 241 0 2 9 -1 19 -7 46 -24 112 4 131 56 7 18 17 24
40 24 34 0 49 22 30 45 -18 22 -99 19 -171 -5 -33 -11 -80 -21 -104 -22 -25
-1 -45 -7 -45 -12 0 -5 21 -45 46 -88 74 -129 174 -329 174 -348 0 -10 -6 -21
-12 -23 -8 -3 -6 -6 5 -6 11 -1 17 -9 17 -26 0 -20 -5 -25 -27 -26 l-28 -2 28
-4 c28 -4 35 -25 18 -52 -8 -12 -16 -11 -53 3 l-43 16 24 -20 c13 -11 29 -20
37 -20 25 0 14 -20 -20 -36 -22 -11 -45 -14 -68 -10 -84 16 -166 105 -153 166
8 35 86 110 115 110 38 0 62 19 54 43 -15 53 -61 60 -143 22 l-54 -25 -64 25
c-81 33 -111 30 -140 -14 -27 -40 -29 -56 -7 -47 25 10 90 -12 125 -41 47 -40
63 -84 45 -126 -31 -74 -133 -122 -213 -101 -31 9 -29 21 10 44 38 23 22 26
-29 5 -34 -14 -35 -14 -44 11 -15 38 -13 44 18 45 l27 2 -27 4 c-22 3 -28 10
-28 30 0 23 2 24 43 19 39 -5 40 -5 10 4 -18 6 -35 14 -38 20 -3 5 44 108 105
228 60 121 110 222 110 224 0 3 -20 6 -44 6 -24 1 -72 11 -106 22 -75 24 -152
26 -170 5 -15 -18 -5 -35 20 -35 10 0 42 -23 69 -51 48 -49 53 -51 91 -46 22
3 40 4 40 2 0 -8 -151 -255 -156 -255 -12 0 -138 97 -163 125 -41 47 -40 79 6
168 50 95 50 96 19 68 -53 -49 -17 28 62 131 81 107 140 124 276 81z m-409
-50 c-10 -42 -21 -48 -50 -29 -28 18 -25 36 5 36 10 0 22 5 25 10 13 21 27 9
20 -17z m1150 -8 c0 -23 -30 -32 -50 -15 -27 22 -18 42 18 38 24 -2 32 -8 32
-23z m-815 -191 c0 -10 -7 -14 -22 -12 -32 5 -35 28 -4 28 17 0 26 -5 26 -16z
m488 4 c-3 -7 -11 -13 -18 -13 -7 0 -15 6 -17 13 -3 7 4 12 17 12 13 0 20 -5
18 -12z m-1485 -154 l46 -7 -43 -56 c-38 -49 -52 -59 -102 -75 -33 -10 -144
-52 -249 -93 -500 -199 -885 -432 -1295 -787 -80 -69 -149 -125 -155 -125 -5
0 -62 50 -125 110 l-115 111 150 -7 150 -6 95 77 c386 312 697 505 1065 663
218 93 490 199 511 200 12 1 42 -2 67 -5z m2491 -28 c55 -19 173 -64 261 -101
464 -192 750 -365 1142 -690 l138 -115 153 6 c111 5 152 4 152 -5 0 -6 -4 -11
-9 -11 -5 0 -59 -47 -119 -105 -61 -58 -113 -101 -116 -96 -13 20 -335 289
-456 380 -282 213 -556 369 -906 516 -125 53 -292 114 -314 115 -20 2 -101
128 -86 134 26 11 64 4 160 -28z m-1890 -21 c0 -11 -38 -72 -84 -135 -130
-180 -210 -366 -210 -486 0 -71 -17 -44 -36 57 -37 193 21 388 151 508 79 73
181 105 179 56z m1355 -92 c129 -137 180 -291 147 -450 -9 -43 -21 -96 -28
-118 l-12 -40 -7 85 c-11 139 -78 305 -194 481 -59 90 -76 135 -59 152 13 13
88 -41 153 -110z m-189 -123 c21 -11 61 -42 87 -69 135 -137 171 -378 85 -560
l-27 -56 -7 105 c-10 171 -71 378 -154 527 -46 84 -46 85 16 53z m-1213 -77
c-64 -137 -90 -257 -91 -416 -1 -152 -3 -154 -55 -47 -23 50 -26 66 -26 170 0
108 2 119 31 181 31 66 157 209 171 196 3 -4 -10 -42 -30 -84z m129 -14 c-73
-276 -82 -506 -26 -636 11 -24 17 -43 14 -43 -14 0 -69 75 -99 136 -75 152
-66 363 22 513 27 46 103 134 110 128 2 -2 -8 -46 -21 -98z m1066 -153 c92
-142 107 -350 36 -491 -26 -50 -70 -116 -74 -112 -2 2 3 36 11 76 10 45 15
111 13 174 l-3 102 -28 -98 c-34 -121 -101 -257 -156 -317 -37 -39 -40 -41
-28 -15 35 76 90 365 69 365 -11 0 -18 -17 -76 -184 -45 -128 -102 -225 -181
-311 l-65 -70 47 100 c25 55 56 127 69 161 12 33 56 126 97 206 65 128 100
228 100 284 0 50 31 -32 65 -171 10 -40 10 -40 11 -7 1 18 8 76 17 130 14 90
14 161 -3 247 l-5 30 22 -20 c13 -11 40 -47 62 -79z m878 57 c0 -12 -2 -12
-15 1 -8 8 -15 17 -15 20 0 3 7 3 15 0 8 -4 15 -13 15 -21z m-1867 -90 c-4
-80 -1 -129 11 -188 10 -44 19 -81 20 -83 2 -1 7 19 10 45 4 26 17 77 28 113
l21 64 18 -74 c10 -41 36 -120 59 -175 22 -55 59 -152 82 -215 22 -63 51 -136
64 -162 14 -27 20 -48 15 -48 -5 0 -32 26 -61 58 -62 69 -142 226 -175 342
l-25 85 3 -135 c2 -108 6 -142 21 -170 l18 -35 -31 30 c-52 49 -103 133 -134
223 -48 139 -38 273 29 390 14 23 27 42 29 42 2 0 1 -48 -2 -107z m1904 81
c-3 -3 -12 -4 -19 -1 -8 3 -5 6 6 6 11 1 17 -2 13 -5z m9 -32 c-17 -16 -18
-16 -5 5 7 12 15 20 18 17 3 -2 -3 -12 -13 -22z m-51 -2 c-3 -5 -10 -10 -16
-10 -5 0 -9 5 -9 10 0 6 7 10 16 10 8 0 12 -4 9 -10z m-1282 -47 c76 -34 107
-71 106 -126 0 -23 -4 -51 -8 -62 -7 -18 -9 -18 -24 10 -9 17 -28 44 -42 60
l-25 30 0 -27 c0 -28 -35 -126 -50 -141 -4 -5 -23 13 -41 39 l-32 48 -39 -45
c-31 -36 -40 -41 -48 -29 -15 23 -50 119 -50 137 0 19 -28 -14 -55 -67 -19
-35 -19 -35 -26 -10 -4 14 -7 44 -8 66 -1 36 4 46 34 73 96 84 189 97 308 44z
m1291 3 c-4 -9 2 -13 18 -11 20 2 24 -2 23 -24 0 -20 8 -30 39 -45 42 -21 42
-22 -23 -58 -17 -9 -31 -24 -31 -33 0 -10 5 -13 12 -9 7 4 8 3 4 -5 -4 -6 -11
-9 -16 -6 -4 3 -10 -1 -13 -7 -2 -8 -10 -2 -17 14 -7 15 -17 25 -21 22 -5 -3
-6 2 -3 11 4 11 -4 19 -30 30 -36 15 -48 35 -22 35 8 0 29 12 46 27 30 25 31
27 14 40 -10 7 -13 13 -5 13 7 0 9 5 6 10 -3 6 1 10 9 10 9 0 13 -6 10 -14z
m-14 -30 c0 -2 -8 -10 -17 -17 -16 -13 -17 -12 -4 4 13 16 21 21 21 13z
m-2375 -164 c48 -107 193 -247 334 -323 27 -15 64 -38 82 -52 19 -14 58 -38
88 -53 47 -25 56 -35 72 -80 14 -38 51 -86 140 -185 129 -142 192 -230 233
-323 39 -88 73 -203 87 -294 l12 -82 72 0 c94 0 155 -22 199 -70 34 -38 66
-119 66 -167 0 -42 -28 -93 -56 -103 -40 -15 -70 9 -88 71 -15 50 -55 124 -62
116 -2 -2 3 -23 11 -47 17 -49 20 -123 5 -151 -12 -22 -60 -49 -88 -49 -30 0
-69 51 -85 110 -7 30 -22 69 -31 85 l-17 30 5 -40 c20 -159 20 -159 -9 -193
-51 -61 -135 -30 -148 54 -4 21 -16 62 -27 89 l-21 50 5 -88 c3 -75 1 -90 -16
-112 -25 -32 -68 -33 -103 -2 -44 38 -57 117 -43 270 19 219 1 256 -230 474
-161 152 -238 249 -303 381 -38 77 -47 89 -52 70 -6 -21 7 -225 18 -308 4 -26
-6 -11 -41 60 -49 102 -100 275 -111 380 l-6 64 -13 -37 c-23 -66 -163 -243
-164 -207 -1 35 51 302 75 385 38 134 145 346 173 345 4 0 20 -31 37 -68z
m-662 2 c8 -73 52 -162 95 -191 18 -12 58 -27 89 -33 62 -13 60 -22 -12 -39
-106 -26 -139 -71 -166 -225 -6 -36 -15 -66 -19 -66 -4 0 -13 29 -20 65 -8 40
-16 62 -23 58 -6 -3 -7 -1 -3 6 9 14 -13 83 -24 76 -5 -3 -11 -1 -15 5 -3 5
-1 10 6 10 20 0 -11 30 -54 51 -21 11 -61 23 -88 26 -51 6 -63 25 -18 28 48 4
99 17 93 26 -3 5 1 6 9 4 19 -8 67 32 60 50 -3 9 1 15 10 15 17 0 43 81 33
105 -4 10 -2 14 6 9 7 -5 9 1 6 20 -3 14 -1 26 3 26 5 0 9 7 9 15 0 8 4 15 9
15 4 0 11 -25 14 -56z m3122 37 c-3 -6 -11 -8 -17 -5 -6 4 -5 9 3 15 16 10 23
4 14 -10z m-3600 -89 c-3 -3 -11 0 -18 7 -9 10 -8 11 6 5 10 -3 15 -9 12 -12z
m2032 -145 c18 -21 42 -56 55 -78 24 -44 34 -48 43 -19 4 11 31 51 61 88 29
37 54 70 54 75 0 4 4 7 9 7 25 0 -38 -151 -108 -260 l-39 -60 -46 72 c-51 82
-96 194 -95 236 l0 27 17 -24 c9 -14 31 -42 49 -64z m2133 63 c5 0 22 -11 38
-25 26 -21 33 -23 64 -13 76 23 158 -23 172 -96 4 -22 14 -37 26 -41 30 -9 60
-54 60 -89 0 -37 -24 -76 -48 -76 -11 0 -5 -11 21 -38 29 -30 37 -46 37 -76 0
-47 -45 -98 -79 -89 -42 11 -68 82 -40 110 9 9 4 21 -19 47 -27 30 -30 40 -25
77 l6 42 -24 -16 c-30 -22 -88 -21 -115 1 -11 9 -31 32 -44 51 l-23 34 -19
-37 c-37 -73 -134 -100 -183 -52 l-24 24 -16 -24 c-52 -80 -185 -30 -185 69 0
38 12 52 51 62 21 5 25 11 21 33 -5 36 28 77 74 92 40 14 114 -1 135 -26 6 -8
16 -14 22 -14 6 0 7 3 4 6 -20 21 59 80 91 69 8 -3 17 -5 22 -5z m-443 -46
c-3 -3 -12 -4 -19 -1 -8 3 -5 6 6 6 11 1 17 -2 13 -5z m-3670 -104 c6 -16 16
-30 23 -30 6 0 8 5 4 12 -4 7 -3 8 5 4 6 -4 9 -11 6 -15 -2 -5 7 -13 21 -20
27 -12 24 -31 -5 -31 -22 0 -46 -25 -60 -63 -12 -30 -31 -37 -31 -11 0 9 -8
23 -17 31 -11 9 -12 11 -3 7 10 -5 9 -1 -4 14 -10 12 -27 24 -37 27 -27 9 -23
21 12 35 19 8 35 24 41 42 13 36 31 36 45 -2z m3590 19 c36 -13 43 -25 43 -73
l0 -38 -26 17 -27 17 7 -33 c13 -60 12 -64 -19 -69 -40 -7 -57 -18 -86 -58
-22 -30 -25 -46 -29 -160 l-5 -127 -72 -3 c-85 -3 -158 18 -348 104 l-124 56
25 40 c35 55 83 177 96 246 6 31 14 61 19 66 10 11 72 -37 172 -133 77 -74 78
-75 105 -61 27 16 68 67 111 139 15 25 41 49 65 61 47 23 55 24 93 9z m-3644
-14 c-3 -9 -8 -14 -10 -11 -3 3 -2 9 2 15 9 16 15 13 8 -4z m-503 -155 c0 -11
5 -20 12 -20 6 0 9 -3 5 -6 -3 -3 -22 -1 -41 6 -45 14 -48 40 -6 40 23 0 30
-4 30 -20z m4696 -1 c28 -31 68 -49 109 -49 26 0 35 -4 35 -17 0 -9 7 -40 16
-68 10 -32 14 -63 10 -80 -7 -26 -8 -27 -26 -10 -11 10 -22 26 -26 37 -19 61
-24 -33 -26 -510 l-3 -522 38 0 c24 0 44 7 57 20 19 19 20 33 20 428 0 455 2
485 34 480 21 -3 21 -3 24 -466 l2 -464 -34 -34 c-31 -31 -39 -34 -94 -34 -54
0 -61 -2 -68 -22 -17 -49 -1 -299 27 -445 13 -65 3 -116 -28 -154 -48 -57
-156 -30 -168 42 -4 21 3 87 15 158 12 67 19 129 16 137 -9 23 -28 5 -22 -20
4 -18 1 -22 -17 -22 -26 1 -35 39 -36 144 -1 72 9 82 65 64 l34 -10 0 65 0 64
-52 -2 -53 -3 -3 37 -3 37 53 0 53 0 -1 413 c-2 688 0 642 -26 643 -13 0 -30
2 -38 5 -10 3 -19 -11 -30 -42 -22 -66 -37 -81 -79 -77 -54 4 -63 33 -52 148
6 51 13 95 16 98 3 3 21 -2 40 -11 20 -9 50 -17 68 -17 36 0 90 29 109 60 16
25 20 25 44 -1z m-446 -109 c0 -25 -4 -30 -24 -30 -13 0 -34 -9 -47 -19 -24
-19 -24 -22 -24 -210 0 -105 -1 -191 -3 -191 -2 0 -17 7 -33 16 l-30 15 3 195
3 196 33 29 c25 23 42 29 77 29 43 0 45 -1 45 -30z m94 15 c3 -8 3 -83 0 -167
-3 -117 -8 -154 -18 -156 -11 -2 -14 29 -18 155 -3 87 -3 164 0 171 6 17 29
15 36 -3z m-4024 -15 c0 -5 -2 -10 -4 -10 -3 0 -8 5 -11 10 -3 6 -1 10 4 10 6
0 11 -4 11 -10z m76 -58 c-4 -3 -14 2 -24 12 -16 18 -16 18 6 6 13 -6 21 -14
18 -18z m-96 -126 c36 -18 106 -48 155 -66 50 -18 110 -41 135 -52 l45 -18
-40 36 -40 36 30 -7 c63 -13 191 -84 241 -133 94 -92 142 -223 124 -336 -30
-184 -191 -295 -371 -257 -30 6 -102 34 -161 62 -159 75 -242 68 -290 -24 -77
-146 59 -612 227 -782 85 -86 138 -109 245 -110 68 0 93 5 125 22 54 29 144
125 246 263 305 413 392 624 418 1010 11 159 31 245 75 325 38 69 51 77 59 36
24 -119 128 -305 220 -393 l52 -50 16 84 16 83 37 -75 c75 -155 124 -357 106
-449 -14 -73 -39 -117 -140 -242 -108 -134 -146 -207 -166 -320 -19 -105 -14
-170 27 -341 52 -212 45 -365 -23 -503 -38 -78 -88 -138 -159 -190 -111 -82
-183 -105 -398 -130 -73 -8 -142 -20 -153 -26 -17 -9 -198 -366 -198 -390 0
-5 12 -9 28 -9 38 0 122 -27 143 -46 32 -29 52 -98 47 -159 -4 -45 -10 -62
-34 -85 -65 -65 -144 -38 -144 49 0 47 -21 131 -32 131 -4 0 -8 -37 -8 -83 0
-74 -3 -86 -23 -105 -57 -54 -136 -33 -138 36 0 20 -8 62 -19 92 -19 58 -24
50 -20 -37 4 -101 -74 -152 -151 -100 -38 26 -58 70 -58 135 -1 53 18 91 63
129 23 19 46 55 69 108 19 44 49 114 67 155 18 41 54 135 80 209 l46 135 68
27 c183 74 251 177 267 404 5 66 13 190 19 275 6 85 13 180 16 210 l4 55 -34
-70 c-19 -38 -47 -96 -61 -128 -34 -74 -118 -160 -187 -192 -166 -76 -280 -67
-448 36 -32 19 -32 18 10 -20 25 -23 79 -58 120 -79 73 -36 76 -37 190 -36
100 0 124 3 185 27 l70 27 -39 -35 c-162 -144 -417 -137 -607 18 -171 139
-268 381 -299 742 -26 295 35 475 184 553 80 41 144 37 231 -14 108 -63 158
-79 252 -79 46 0 83 -3 83 -6 0 -4 -12 -15 -27 -25 -43 -29 -138 -23 -245 15
-48 17 -106 33 -130 36 l-43 5 35 -11 c19 -5 82 -32 140 -60 190 -89 295 -88
383 2 58 60 61 79 5 39 -53 -38 -67 -38 -34 0 32 38 56 118 56 184 0 96 -74
202 -178 255 l-41 21 49 -49 c51 -51 93 -123 105 -181 l7 -35 -29 31 c-45 50
-116 103 -160 118 -22 8 -72 19 -112 25 -74 12 -150 44 -209 89 -68 52 -126
166 -138 272 l-7 64 54 -47 c29 -26 83 -62 119 -81z m-360 68 c0 -8 -5 -12
-10 -9 -6 4 -8 11 -5 16 9 14 15 11 15 -7z m5787 -106 c-3 -7 -5 -2 -5 12 0
14 2 19 5 13 2 -7 2 -19 0 -25z m-1217 -235 l-1 -258 -39 42 -40 42 0 209 c0
115 3 212 7 215 3 4 21 7 40 7 l33 0 0 -257z m-4700 130 c23 -4 30 -10 25 -21
-12 -33 -18 -309 -7 -341 6 -17 7 -29 3 -27 -13 8 -44 -31 -35 -45 4 -7 3 -10
-3 -6 -19 12 -39 -29 -109 -223 -5 -13 -6 -13 -13 0 -5 8 -12 33 -16 54 -8 46
-76 186 -99 205 -14 12 -16 11 -10 -5 4 -14 3 -16 -4 -5 -5 7 -10 94 -11 193
-1 98 -4 185 -7 193 -4 8 7 20 26 30 17 9 29 19 26 23 -3 5 0 14 6 22 8 12 9
12 4 -2 -9 -30 11 -20 50 25 l37 43 53 -53 c32 -33 65 -56 84 -60z m5650 75
c19 -23 36 -36 38 -30 6 19 23 14 20 -5 -2 -11 11 -25 35 -38 20 -12 35 -24
33 -26 -3 -3 -8 -81 -11 -174 l-6 -169 -33 -46 c-38 -54 -51 -82 -81 -175 -13
-38 -27 -69 -32 -68 -4 1 -12 16 -17 35 -6 18 -12 35 -15 38 -3 3 -8 16 -9 30
-2 14 -20 54 -39 88 -27 48 -38 60 -45 50 -8 -10 -9 -9 -5 3 3 9 2 20 -3 25
-5 5 -10 92 -11 193 l-2 183 37 23 c48 29 96 75 96 92 0 23 16 14 50 -29z
m-2018 17 c341 -72 942 -394 1049 -563 43 -67 37 -150 -13 -216 -14 -18 -15
-18 -43 0 -22 15 -43 18 -89 15 -34 -1 -67 -8 -73 -13 -8 -6 -52 -9 -110 -6
-88 4 -117 11 -282 66 -101 35 -185 61 -186 60 -1 -2 -6 -13 -9 -26 -9 -27 10
-36 235 -111 198 -67 335 -101 427 -108 83 -7 79 4 59 -143 l-12 -85 -40 3
c-22 2 -41 5 -42 6 -2 2 5 44 16 95 13 66 15 93 7 96 -17 5 -169 25 -187 25
-13 0 -21 -19 -34 -72 -10 -40 -20 -76 -24 -80 -21 -24 -527 160 -756 274
-141 71 -450 256 -499 299 l-40 36 53 82 c30 45 57 84 62 86 4 3 22 -9 41 -26
41 -38 120 -93 216 -148 57 -33 81 -41 110 -39 l37 3 -80 57 c-95 67 -208 166
-251 221 l-32 40 40 68 40 69 27 -38 c76 -104 350 -279 631 -402 99 -44 408
-147 520 -173 96 -23 212 -32 238 -18 28 15 28 31 0 67 l-23 28 -5 -29 -6 -30
-17 32 c-9 18 -44 54 -76 80 -121 97 -413 265 -556 318 -38 15 -108 41 -155
60 -135 53 -242 77 -357 79 -144 3 -167 29 -53 60 72 19 152 20 242 1z m-2203
-272 c-5 -38 -8 -78 -8 -91 -1 -15 -5 -21 -12 -16 -8 5 -10 -1 -7 -20 3 -14 1
-29 -3 -32 -5 -3 -9 -15 -9 -27 0 -18 2 -19 10 -7 7 11 8 5 3 -20 -3 -19 -10
-36 -15 -38 -4 -2 -8 -10 -8 -18 0 -8 -7 -14 -15 -14 -8 0 -15 9 -15 20 0 11
-6 20 -14 20 -11 0 -16 22 -21 88 -3 48 -8 97 -11 110 -3 15 0 22 11 22 8 0
15 5 15 10 0 6 -5 10 -11 10 -5 0 -7 5 -4 10 3 6 18 10 33 10 15 1 41 12 57
25 17 14 30 25 31 25 0 0 -3 -30 -7 -67z m2508 12 c81 -28 150 -64 177 -94 23
-25 12 -67 -19 -75 -51 -13 -270 82 -302 131 -13 19 -12 24 6 42 27 27 46 26
138 -4z m-3278 -76 c80 -13 152 -43 183 -76 18 -21 19 -25 5 -20 -10 4 -53 16
-97 26 -71 18 -127 41 -170 70 -20 14 -5 14 79 0z m671 -424 c0 -5 -5 -3 -10
5 -5 8 -10 20 -10 25 0 6 5 3 10 -5 5 -8 10 -19 10 -25z m2165 -145 c218 -106
573 -240 795 -300 75 -20 95 -29 70 -29 -27 -1 -221 34 -341 61 -6 2 -22 -28
-35 -66 -13 -38 -25 -71 -27 -73 -5 -4 -414 156 -508 199 -59 28 -177 95 -198
114 -2 1 6 15 18 30 23 30 29 112 11 159 l-10 27 52 -32 c29 -17 107 -58 173
-90z m-2210 70 c3 -5 1 -10 -4 -10 -6 0 -11 5 -11 10 0 6 2 10 4 10 3 0 8 -4
11 -10z m-48 -72 c-3 -7 -5 -2 -5 12 0 14 2 19 5 13 2 -7 2 -19 0 -25z m-17
-43 c0 -8 -4 -15 -10 -15 -5 0 -7 7 -4 15 4 8 8 15 10 15 2 0 4 -7 4 -15z
m-1330 -26 c0 -13 4 -18 12 -13 8 5 9 2 5 -10 -10 -26 4 -127 16 -119 6 4 8
-2 5 -15 -12 -45 34 -152 86 -201 14 -14 26 -29 26 -34 0 -5 -18 -29 -39 -52
-52 -56 -75 -103 -96 -195 -9 -41 -19 -81 -21 -88 -8 -26 -22 -1 -29 51 -9 62
-40 151 -61 172 -9 8 -12 15 -8 15 4 0 -3 11 -16 25 -13 14 -30 23 -38 20 -7
-2 -10 0 -7 5 3 5 -14 15 -39 22 -54 14 -58 23 -16 32 17 3 51 19 75 36 69 47
96 119 120 323 6 46 25 67 25 26z m5730 -24 c0 -54 27 -179 51 -234 25 -59 58
-90 123 -117 46 -19 59 -34 31 -34 -29 0 -93 -39 -123 -76 -32 -38 -66 -129
-77 -206 -4 -27 -11 -48 -15 -48 -8 0 -30 77 -30 105 0 25 -41 115 -50 110 -4
-3 -7 3 -6 13 1 12 -5 16 -19 14 -15 -2 -17 -1 -6 6 17 12 4 35 -15 28 -8 -3
-13 0 -11 7 1 7 -6 11 -15 11 -10 -1 -15 2 -12 7 7 12 -39 29 -77 29 -42 0
-36 17 10 25 67 11 129 58 156 118 24 52 55 184 55 231 0 33 10 57 21 50 5 -3
9 -20 9 -39z m-4429 2 c-10 -9 -11 -8 -5 6 3 10 9 15 12 12 3 -3 0 -11 -7 -18z
m-685 -74 c-11 -11 -17 4 -9 23 7 18 8 18 11 1 2 -10 1 -21 -2 -24z m2731 -8
c17 -3 92 -33 165 -67 238 -108 443 -185 653 -247 147 -44 340 -85 359 -78 8
3 18 43 26 102 16 115 25 130 68 120 18 -3 32 -13 32 -20 0 -36 -41 -290 -48
-297 -19 -19 -361 59 -607 139 -203 66 -592 237 -720 317 l-40 25 25 10 c14 5
32 8 40 6 8 -2 29 -6 47 -10z m-669 -172 c2 -7 -8 -41 -21 -75 -51 -128 -100
-302 -137 -490 -7 -35 -17 -58 -24 -58 -7 0 -50 35 -95 78 l-82 77 31 125 c36
149 113 386 147 453 l24 49 77 -73 c42 -40 78 -79 80 -86z m-1483 116 c-3 -12
-7 -24 -10 -27 -3 -3 -3 5 -1 19 6 30 5 29 10 29 3 0 3 -10 1 -21z m1988 -117
c-5 -20 -13 -46 -17 -57 -4 -11 6 4 21 33 18 34 33 51 43 49 15 -3 16 -7 5
-42 -4 -16 -3 -15 6 3 13 24 18 26 38 13 10 -7 11 -14 2 -32 l-12 -24 17 22
16 22 71 -33 c40 -18 137 -65 217 -104 80 -38 162 -77 183 -86 20 -8 37 -21
36 -28 0 -7 -17 -60 -38 -118 -36 -99 -39 -103 -51 -80 -33 65 -95 95 -146 71
-25 -11 -32 -3 -13 16 9 9 3 16 -22 27 -65 30 -379 146 -393 146 -20 0 -70
-52 -86 -89 -11 -27 -10 -36 9 -71 28 -54 27 -60 -9 -50 -28 8 -30 7 -30 -20
0 -26 3 -29 50 -35 77 -11 87 6 46 78 -39 69 -40 82 -8 118 l28 32 70 -23 c81
-27 90 -33 69 -50 -8 -7 -15 -20 -15 -29 0 -10 -3 -12 -8 -5 -20 31 -92 46
-92 19 0 -8 16 -35 35 -61 19 -25 35 -50 35 -55 0 -5 -12 -27 -26 -49 -30 -45
-41 -47 -139 -27 l-60 13 -3 47 c-2 25 2 56 8 68 7 11 9 23 7 26 -3 2 -15 -22
-26 -54 -12 -32 -31 -75 -42 -96 l-21 -38 24 6 c13 3 64 -3 113 -14 50 -10 92
-15 93 -10 2 5 8 9 13 9 6 0 5 -9 -1 -21 -7 -11 -9 -23 -6 -26 4 -4 135 -53
142 -53 1 0 7 21 14 48 16 60 23 67 50 52 16 -9 25 -8 38 2 14 11 15 11 9 -5
-4 -10 -10 -35 -13 -56 -5 -31 -1 -43 28 -78 51 -64 122 -79 171 -36 9 9 17
14 17 11 0 -22 -94 -217 -166 -344 l-24 -42 -80 28 c-106 37 -230 92 -230 102
0 4 -10 8 -22 8 -36 1 -282 132 -286 153 -5 25 101 358 164 515 65 161 113
258 155 318 39 53 60 46 42 -14z m-133 -9 c-10 -27 -36 -86 -57 -133 -22 -47
-56 -125 -76 -175 -42 -106 -137 -410 -137 -439 -1 -52 -14 -50 -120 19 l-103
66 7 56 c19 159 142 556 188 606 24 25 31 27 114 28 49 0 107 4 129 8 77 16
76 17 55 -36z m1800 -9 c0 -27 -14 -31 -36 -9 -18 18 -13 30 15 32 16 1 21 -4
21 -23z m-53 -66 c-3 -8 -6 -5 -6 6 -1 11 2 17 5 13 3 -3 4 -12 1 -19z m20
-40 c-2 -13 -4 -3 -4 22 0 25 2 35 4 23 2 -13 2 -33 0 -45z m-3787 18 c0 -3
-4 -8 -10 -11 -5 -3 -10 -1 -10 4 0 6 5 11 10 11 6 0 10 -2 10 -4z m4341 -73
c15 -7 32 -20 39 -28 16 -19 6 -45 -17 -44 -16 0 -16 1 2 9 11 5 14 9 7 9 -26
2 -54 -21 -68 -55 -16 -38 -34 -45 -34 -13 0 11 -4 18 -9 15 -5 -3 -8 2 -7 12
1 14 -37 41 -77 55 -17 5 5 35 24 32 11 -2 22 2 26 10 3 8 9 12 14 9 5 -3 17
12 25 33 l16 38 17 -35 c9 -19 28 -40 42 -47z m656 10 c-2 -16 -4 -5 -4 22 0
28 2 40 4 28 2 -13 2 -35 0 -50z m-5069 13 c-7 -8 -15 -12 -17 -11 -5 6 10 25
20 25 5 0 4 -6 -3 -14z m4582 -16 c0 -5 -2 -10 -4 -10 -3 0 -8 5 -11 10 -3 6
-1 10 4 10 6 0 11 -4 11 -10z m-1535 -145 c54 -20 101 -38 104 -40 6 -6 -12
-66 -66 -215 -63 -174 -213 -470 -304 -598 -16 -22 -19 -22 -65 -11 -90 22
-88 18 -38 113 45 84 102 219 85 201 -4 -6 -30 -50 -56 -100 -78 -151 -96
-175 -127 -175 -16 0 -28 4 -28 10 0 5 22 51 49 102 72 134 185 398 252 587
33 90 59 166 59 169 0 5 7 3 135 -43z m-567 -34 l103 -45 -27 -21 -27 -21 -49
25 c-48 26 -49 26 -63 7 -21 -28 -19 -33 18 -52 17 -9 33 -18 35 -19 4 -4 -21
-55 -27 -55 -3 0 -20 9 -38 20 l-32 19 -22 -59 -21 -58 -34 11 c-18 7 -33 15
-34 20 -1 8 69 162 100 218 15 28 16 39 7 49 -15 15 -15 16 111 -39z m812 -38
c33 -9 60 -22 60 -29 0 -19 -68 -209 -111 -311 -72 -169 -255 -523 -270 -523
-12 0 -12 17 0 22 24 9 221 442 207 455 -3 3 -20 -25 -36 -63 -28 -61 -189
-394 -195 -402 -2 -2 -15 0 -30 4 -25 6 -26 8 -12 19 10 7 17 18 17 26 0 11 2
12 9 1 6 -10 18 5 41 49 49 95 142 314 125 298 -3 -3 -30 -54 -60 -114 -66
-128 -154 -265 -171 -265 -26 0 -21 17 27 90 98 148 214 406 298 663 18 53 35
97 37 97 2 0 31 -7 64 -17z m-591 -60 c14 -11 32 -32 39 -46 11 -23 10 -32
-11 -74 -14 -26 -28 -59 -32 -73 -20 -68 -87 -90 -152 -50 -53 32 -57 51 -28
119 14 33 25 74 25 90 0 42 33 64 89 58 24 -3 55 -14 70 -24z m883 -4 c-4 -45
-98 -321 -142 -419 -50 -111 -123 -244 -193 -353 l-50 -78 -41 6 c-22 4 -42 9
-44 10 -2 2 21 39 51 82 123 176 218 375 303 637 l49 147 35 -3 c31 -3 35 -6
32 -29z m-1097 11 c3 -6 -1 -7 -9 -4 -18 7 -21 14 -7 14 6 0 13 -4 16 -10z
m1612 -245 c43 -169 46 -225 15 -258 -13 -14 -35 -28 -48 -31 -25 -7 -77 14
-91 36 -10 17 -21 118 -12 118 3 0 12 28 19 63 14 69 38 175 45 195 3 8 13 12
22 10 12 -2 25 -36 50 -133z m-2746 49 c42 -45 259 -203 371 -270 307 -182
728 -353 1103 -448 114 -29 247 -55 288 -56 4 0 7 -4 7 -10 0 -12 -130 -190
-139 -190 -21 0 -255 43 -305 56 -476 120 -988 367 -1300 624 l-88 73 6 46 c3
25 8 81 12 124 4 42 10 77 14 77 3 0 17 -12 31 -26z m-2309 -15 c10 -16 21
-28 27 -27 5 2 10 -1 11 -7 3 -19 23 -36 37 -31 8 3 11 2 8 -4 -3 -5 8 -16 25
-25 26 -14 29 -19 23 -43 -5 -15 -8 -97 -8 -183 l0 -157 -66 -11 c-36 -6 -103
-14 -150 -17 l-84 -7 3 179 c1 131 -1 186 -11 204 -12 24 -11 26 27 43 33 14
38 20 26 28 -12 8 -10 9 6 4 16 -4 29 3 53 30 17 20 29 39 27 44 -3 4 3 7 12
8 10 1 25 -12 34 -28z m5787 -35 c18 -18 48 -40 67 -50 27 -15 34 -24 30 -39
-3 -11 -6 -103 -6 -204 l0 -184 -62 7 c-35 3 -103 11 -151 18 l-89 11 7 69 c9
85 -5 295 -16 233 l-6 -40 -1 35 c-3 59 7 75 65 109 30 19 63 46 72 62 18 33
43 42 52 19 4 -8 21 -29 38 -46z m-4679 -129 c-7 -8 -16 -12 -21 -9 -5 3 -9
-1 -9 -9 0 -8 -8 -21 -17 -28 -16 -13 -17 -12 -4 4 18 23 9 22 -19 -3 -25 -22
-40 -26 -40 -11 0 5 8 12 18 14 16 4 16 5 0 6 -10 0 -22 -8 -28 -19 -6 -11 -7
-20 -3 -20 12 0 -20 -20 -32 -20 -5 0 -4 4 2 8 7 4 14 19 16 32 3 20 16 29 63
47 74 27 91 29 74 8z m-552 -128 c8 -22 26 -41 52 -56 22 -12 40 -26 40 -32 0
-5 -15 -15 -33 -22 -22 -10 -38 -27 -51 -56 -11 -22 -22 -41 -25 -41 -3 0 -14
18 -23 40 -12 29 -27 45 -52 55 -36 15 -48 35 -22 35 19 0 76 60 82 87 8 32
18 29 32 -10z m4192 -35 c0 -45 30 -134 57 -170 27 -36 80 -66 136 -76 41 -8
51 -26 12 -26 -31 0 -76 -20 -69 -31 3 -5 -2 -6 -10 -3 -23 9 -82 -54 -95
-101 -6 -22 -16 -70 -23 -107 -6 -38 -14 -68 -19 -68 -4 0 -10 19 -14 43 -16
105 -62 217 -89 217 -5 0 -1 -10 10 -22 l19 -23 -22 19 c-12 10 -21 23 -20 28
1 6 -4 13 -12 16 -9 3 -11 0 -7 -9 4 -8 1 -6 -7 3 -17 21 -56 37 -100 40 -19
1 -34 7 -34 13 0 6 10 10 22 7 30 -5 128 25 159 49 25 20 37 47 14 33 -7 -4
-8 -3 -4 5 4 6 11 9 16 6 11 -7 38 64 46 117 8 57 11 68 24 68 5 0 10 -13 10
-28z m-2428 -103 c247 -200 681 -416 1091 -544 48 -15 86 -29 84 -32 -7 -6
-186 25 -260 46 -78 21 -71 27 -107 -82 -25 -79 -4 -78 -195 -6 -71 26 -131
47 -133 45 -1 -2 21 -23 50 -46 29 -23 52 -46 51 -50 -3 -12 157 -66 307 -104
154 -39 304 -66 365 -66 l42 0 62 110 63 110 39 0 c28 0 39 -4 37 -12 -2 -7
-29 -63 -60 -125 l-57 -111 -68 -8 c-154 -16 -559 46 -724 113 -57 22 -59 9
-4 -29 27 -18 57 -41 69 -50 21 -17 21 -17 -10 -18 -122 -1 -444 140 -639 279
-69 49 -185 161 -185 179 0 12 59 102 67 102 2 0 36 -24 76 -54 71 -53 149
-97 197 -111 17 -4 -18 35 -102 117 l-128 124 0 137 c0 75 2 137 5 137 3 0 33
-23 67 -51z m2318 -89 c0 -5 -5 -10 -11 -10 -5 0 -7 5 -4 10 3 6 8 10 11 10 2
0 4 -4 4 -10z m-4429 -37 c13 -16 12 -17 -3 -4 -17 13 -22 21 -14 21 2 0 10
-8 17 -17z m4361 -78 c0 -5 -5 -10 -11 -11 -8 -2 -7 -1 0 3 8 4 7 8 -2 15 -11
8 -11 9 -1 6 8 -2 14 -8 14 -13z m-4271 -22 c13 -16 12 -17 -3 -4 -10 7 -18
15 -18 17 0 8 8 3 21 -13z m-227 -166 c20 -52 42 -72 99 -88 43 -11 42 -24 -4
-33 -43 -8 -96 -64 -104 -109 -9 -47 -19 -47 -33 2 -18 58 -47 88 -103 106
l-51 17 53 18 c62 21 85 46 102 107 13 49 17 47 41 -20z m5609 4 c18 -51 42
-73 105 -96 32 -11 34 -14 17 -20 -71 -27 -87 -37 -105 -67 -12 -18 -23 -45
-27 -60 -8 -38 -18 -35 -31 11 -20 67 -43 88 -127 116 -16 5 -11 10 29 25 64
25 84 45 98 97 5 24 13 43 17 43 3 0 14 -22 24 -49z m-5030 2 c-7 -2 -13 -15
-13 -28 0 -13 -4 -26 -9 -29 -8 -5 -6 16 5 52 2 6 9 12 16 11 10 0 10 -2 1 -6z
m-133 -43 c0 -5 7 -10 15 -10 8 0 15 5 15 10 0 6 15 10 33 10 33 0 34 0 28
-37 -4 -21 -12 -38 -18 -38 -6 0 -15 -4 -20 -9 -5 -5 -3 -6 5 -2 7 4 12 1 12
-8 0 -9 -5 -16 -10 -16 -15 0 -61 51 -55 60 3 4 -3 14 -12 21 -15 12 -16 12
-9 -6 5 -14 4 -17 -4 -9 -6 6 -8 18 -4 27 7 18 24 23 24 7z m3850 -21 c0 6 7
11 15 11 8 0 15 -7 15 -16 0 -8 4 -12 10 -9 5 3 7 0 4 -9 -5 -14 34 -49 52
-45 35 6 32 -6 -9 -31 -26 -17 -52 -42 -57 -55 -11 -30 -30 -32 -37 -5 -5 20
-15 25 -26 13 -4 -3 -1 -13 6 -22 10 -14 10 -14 -3 -4 -16 12 -34 6 -37 -12
-1 -6 10 -16 23 -22 20 -9 26 -9 31 3 3 7 10 11 15 8 6 -4 20 4 30 17 15 18
18 19 14 6 -3 -10 -6 -28 -6 -39 0 -13 -5 -18 -14 -15 -10 4 -13 1 -10 -8 3
-8 13 -15 22 -17 10 -2 -88 -5 -216 -6 -182 -1 -233 1 -229 11 2 6 12 11 22 9
31 -6 62 7 68 28 3 13 11 18 20 14 11 -4 21 5 32 25 8 17 20 31 26 31 6 0 3
-7 -5 -16 -20 -19 -20 -24 -2 -24 8 0 18 9 21 20 3 11 13 20 21 20 8 0 14 6
14 14 0 17 24 28 36 16 5 -5 10 1 10 15 1 13 -4 26 -12 29 -9 4 -14 -2 -14
-15 0 -11 -4 -17 -10 -14 -5 3 -10 0 -11 -7 -1 -17 -18 23 -18 42 1 10 2 11 6
2 2 -6 10 -9 16 -5 17 11 137 11 130 0 -3 -5 4 -4 15 2 27 14 39 34 24 39 -7
2 -12 11 -12 19 0 13 3 13 15 3 10 -9 15 -9 15 -1z m-200 -120 c0 -5 -4 -9
-10 -9 -5 0 -10 7 -10 16 0 8 5 12 10 9 6 -3 10 -10 10 -16z m-2005 -109 c10
-11 16 -20 13 -20 -3 0 -13 9 -23 20 -10 11 -16 20 -13 20 3 0 13 -9 23 -20z
m2855 15 c0 -1 -12 -12 -27 -26 -20 -17 -23 -18 -10 -3 9 11 15 23 12 26 -3 2
2 5 10 5 8 0 15 -1 15 -2z m-3603 -27 c-3 -8 -6 -5 -6 6 -1 11 2 17 5 13 3 -3
4 -12 1 -19z m3486 -55 c-7 -2 -21 -2 -30 0 -10 3 -4 5 12 5 17 0 24 -2 18 -5z
m1107 -85 c0 -4 -7 -8 -15 -8 -8 0 -15 -5 -15 -11 0 -6 6 -9 13 -6 13 5 46 -9
37 -15 -3 -2 -27 -1 -55 3 -27 3 -42 7 -32 7 10 1 15 7 12 12 -4 6 -11 8 -16
5 -5 -3 -6 0 -3 8 5 15 74 20 74 5z m-2082 -125 c-10 -2 -26 -2 -35 0 -10 3
-2 5 17 5 19 0 27 -2 18 -5z m12 -39 c0 -8 -7 -14 -15 -14 -8 0 -15 -2 -15 -4
0 -2 -2 -11 -6 -19 -3 -10 4 -16 26 -21 19 -3 29 -10 25 -16 -5 -8 -11 -8 -20
0 -8 7 -19 9 -24 5 -12 -7 -26 38 -18 59 4 9 0 12 -12 9 -10 -2 -22 2 -28 9
-9 10 -2 12 38 10 34 -3 49 -8 49 -18z m-114 1 c4 -8 15 -15 25 -15 12 0 19
-7 19 -20 0 -15 -7 -20 -25 -20 -15 0 -25 5 -24 13 5 37 -1 48 -20 37 -11 -5
-32 -10 -48 -9 -25 0 -24 2 12 14 53 17 55 17 61 0z m-2466 -69 c0 -3 -4 -8
-10 -11 -5 -3 -10 -1 -10 4 0 6 5 11 10 11 6 0 10 -2 10 -4z m570 -11 c0 -13
27 -15 185 -15 102 0 185 -4 185 -9 0 -5 -11 -16 -25 -25 -14 -9 -23 -21 -20
-26 4 -6 1 -10 -5 -10 -26 0 -32 -66 -37 -376 -6 -361 -1 -443 29 -476 11 -13
16 -16 12 -8 -4 9 -3 12 2 7 5 -5 9 -12 9 -15 0 -4 4 -13 8 -19 6 -10 -19 -13
-118 -13 -124 0 -126 0 -137 25 -6 13 -15 22 -19 19 -5 -3 -6 1 -4 8 7 19
-113 190 -127 182 -7 -4 -8 -2 -4 5 9 14 -68 114 -79 103 -5 -4 -5 -2 -2 4 8
15 -22 56 -35 48 -7 -4 -8 -2 -4 4 4 6 -23 50 -59 98 l-65 86 0 -243 c0 -243
7 -307 36 -340 13 -15 1 -17 -138 -22 -84 -3 -154 -4 -156 -2 -2 2 4 15 14 29
21 33 22 64 28 514 3 286 2 350 -9 335 -43 -62 -195 -356 -189 -365 4 -6 3 -8
-3 -5 -6 4 -22 -15 -37 -42 -25 -48 -26 -53 -26 -228 0 -159 2 -183 20 -218
11 -21 19 -40 17 -41 -4 -3 -317 -10 -317 -7 0 2 10 17 22 34 21 28 23 43 26
218 4 187 4 188 -19 211 -13 13 -18 20 -12 16 9 -5 11 -2 7 8 -3 9 -11 13 -17
9 -6 -3 -7 -1 -3 5 8 14 -58 134 -69 124 -4 -4 -5 -1 -1 6 10 16 -52 124 -66
116 -6 -4 -8 -2 -5 3 10 16 -43 107 -55 95 -6 -6 -4 -20 5 -38 30 -59 39 -145
35 -364 -3 -207 -4 -217 -29 -270 -32 -69 -78 -123 -130 -151 -21 -12 -35 -27
-32 -32 3 -6 1 -7 -6 -3 -6 4 -26 3 -44 -3 -17 -6 -142 -22 -277 -36 -135 -14
-284 -32 -333 -40 -93 -16 -137 -19 -137 -9 0 3 12 15 26 26 14 12 23 27 20
35 -3 8 -1 11 4 8 5 -3 17 11 27 32 15 34 18 82 21 425 3 385 -3 479 -30 462
-7 -5 -9 -2 -5 8 3 10 -6 27 -24 44 -16 15 -29 23 -29 16 0 -6 -7 -9 -15 -6
-8 4 -15 10 -15 16 0 5 5 6 10 3 6 -3 10 -4 10 -1 0 3 -14 12 -30 21 -17 9
-30 20 -30 24 0 6 166 8 393 6 382 -3 441 -5 432 -14 -3 -2 5 -9 18 -16 52
-27 72 -41 90 -63 10 -12 23 -20 28 -17 5 4 9 1 9 -4 0 -35 19 -66 32 -53 7 7
6 16 -3 29 -27 38 -64 78 -94 101 -16 13 -30 26 -30 29 0 2 80 6 177 7 166 3
177 2 168 -14 -5 -10 -6 -21 -2 -25 4 -3 1 -5 -7 -3 -30 6 -20 -30 29 -112 28
-47 67 -115 87 -152 19 -37 39 -65 44 -62 17 10 50 85 43 96 -4 6 -3 8 4 4 6
-3 33 38 67 105 53 104 56 112 41 133 -14 23 -14 24 22 30 20 3 119 6 218 6
163 0 183 -2 188 -17 6 -15 9 -15 17 -3 9 13 10 12 6 -2 -6 -18 79 -135 95
-130 5 1 7 -2 4 -7 -8 -12 32 -61 47 -58 7 1 11 -4 9 -11 -3 -19 48 -83 61
-75 5 3 7 2 4 -4 -8 -13 22 -55 34 -48 5 3 6 0 3 -8 -3 -8 3 -20 12 -28 16
-12 17 -12 11 4 -4 10 -2 17 6 17 7 0 12 -11 12 -24 0 -13 -4 -21 -9 -18 -5 3
3 -11 19 -32 15 -20 30 -34 34 -31 3 3 -1 10 -9 15 -11 7 -11 10 -2 10 9 0 10
5 3 18 -10 19 -10 72 1 66 3 -2 9 2 12 8 3 7 5 -13 4 -44 -1 -32 1 -61 5 -65
4 -3 7 53 7 126 0 93 -3 130 -11 125 -8 -4 -9 13 -6 57 6 75 3 86 -41 133 -18
20 -29 36 -25 36 5 0 1 5 -7 10 -13 8 -12 10 3 10 9 0 17 -7 17 -15z m2975 5
c3 -5 -1 -10 -10 -10 -9 0 -13 5 -10 10 3 6 8 10 10 10 2 0 7 -4 10 -10z
m-3618 -6 c-3 -3 -12 -4 -19 -1 -8 3 -5 6 6 6 11 1 17 -2 13 -5z m2693 -25
c31 -14 72 -40 92 -57 19 -17 37 -29 40 -27 3 3 13 -4 23 -15 10 -11 25 -20
33 -20 11 0 12 -3 3 -13 -6 -8 -7 -18 -3 -22 4 -5 2 -6 -4 -2 -19 11 -118
-117 -112 -144 2 -6 -2 -13 -9 -16 -6 -2 -22 21 -36 51 -36 77 -58 88 -183 94
-120 5 -153 -4 -179 -52 -23 -43 -14 -80 22 -94 16 -6 99 -23 186 -37 222 -35
314 -80 374 -182 38 -65 43 -166 12 -248 -27 -74 -99 -148 -158 -166 -23 -7
-37 -15 -32 -18 5 -4 -64 -8 -153 -9 -192 -4 -264 7 -342 54 -30 18 -61 31
-68 28 -8 -3 -17 -1 -21 5 -4 7 1 9 12 6 10 -3 0 4 -22 15 -22 11 -46 20 -52
20 -18 0 -16 15 3 30 17 15 41 55 27 47 -5 -4 -10 1 -10 10 0 9 8 18 18 20 20
6 32 30 22 46 -3 7 -2 9 2 4 9 -7 44 57 45 81 0 28 27 8 48 -39 14 -29 28 -46
34 -43 6 4 8 3 5 -3 -7 -11 25 -44 63 -64 33 -17 266 -27 256 -10 -5 7 2 9 23
5 25 -5 36 -1 61 24 25 26 30 38 30 79 0 57 -19 90 -64 108 -17 7 -105 27
-196 45 -93 18 -186 42 -214 55 -27 13 -54 21 -59 18 -6 -3 -7 -1 -4 4 4 6 -2
18 -13 28 -11 10 -29 43 -41 74 -24 64 -20 127 11 198 10 23 15 45 12 49 -4 4
-2 4 5 0 6 -3 14 -2 18 4 12 20 98 73 148 91 43 16 74 19 172 16 104 -2 127
-6 175 -28z m987 25 c-3 -3 -12 -4 -19 -1 -8 3 -5 6 6 6 11 1 17 -2 13 -5z
m-1802 -27 c21 -10 47 -25 57 -33 9 -9 22 -13 29 -8 8 4 10 3 5 -4 -4 -6 2
-24 14 -39 27 -37 36 -104 50 -348 21 -384 34 -474 72 -515 l19 -20 -166 0
c-91 0 -165 1 -165 3 0 1 9 20 20 42 21 42 26 119 13 248 l-6 67 -238 0 -237
0 -12 -52 c-6 -29 -14 -97 -17 -150 -5 -80 -3 -102 11 -122 9 -14 16 -27 16
-28 0 -2 -72 -3 -160 -3 -88 0 -160 2 -160 4 0 3 11 21 25 40 18 28 30 71 50
185 15 81 24 155 21 162 -3 8 -2 14 3 14 4 0 13 38 20 85 11 71 11 88 0 103
-13 15 -12 16 2 4 15 -11 18 -4 29 75 23 173 52 233 132 274 58 30 139 38 348
35 150 -2 193 -5 225 -19z m3070 13 c-3 -5 -13 -10 -21 -10 -8 0 -12 5 -9 10
3 6 13 10 21 10 8 0 12 -4 9 -10z m-2048 -32 c-3 -7 -5 -2 -5 12 0 14 2 19 5
13 2 -7 2 -19 0 -25z m780 -110 c-4 -79 -7 -144 -7 -145 -1 -12 -30 1 -30 13
0 8 -4 12 -10 9 -5 -3 -7 0 -5 8 3 7 -4 22 -16 33 -17 15 -41 20 -119 24 l-98
5 2 -380 c1 -209 6 -388 10 -397 4 -10 13 -15 19 -11 6 3 7 1 3 -6 -4 -6 -3
-17 2 -24 8 -9 -24 -11 -141 -9 -153 3 -186 11 -154 34 34 26 37 66 37 434 l0
364 -39 0 c-103 0 -162 -13 -193 -41 -16 -16 -33 -29 -35 -29 -7 0 6 204 14
238 l5 22 381 0 380 0 -6 -142z m388 132 c3 -6 -1 -17 -9 -26 -20 -20 -20 -45
0 -70 15 -19 16 -19 9 1 -3 11 -2 16 2 11 4 -4 8 -16 8 -25 0 -18 135 -270
145 -271 12 0 120 202 114 213 -4 7 -3 8 1 4 9 -8 47 46 66 92 7 18 6 28 -7
42 -10 11 -15 21 -13 23 2 2 82 6 177 9 148 5 172 4 172 -9 0 -8 -8 -17 -17
-21 -10 -3 -26 -13 -36 -21 -14 -12 -15 -18 -5 -25 9 -6 8 -7 -4 -4 -18 6 -42
-15 -30 -27 4 -4 1 -6 -7 -4 -16 3 -110 -145 -231 -363 l-70 -125 0 -160 c0
-172 13 -252 48 -302 12 -16 22 -32 22 -34 0 -2 -33 1 -72 8 -40 7 -119 15
-176 19 l-103 7 21 23 c33 35 40 80 40 264 l0 174 -32 63 c-18 34 -36 60 -40
58 -5 -3 -8 -2 -7 3 4 21 -2 34 -13 27 -7 -4 -8 -3 -4 4 10 16 -12 54 -26 46
-6 -4 -8 -3 -5 4 10 15 -3 43 -17 35 -6 -3 -8 -3 -4 2 9 9 -44 113 -73 144
-11 12 -17 21 -14 21 3 0 -2 12 -11 26 -13 19 -19 22 -26 12 -7 -9 -8 -8 -4 5
8 25 -4 43 -16 26 -7 -10 -8 -9 -4 5 7 22 -21 59 -37 49 -6 -3 -7 -1 -3 5 4 7
-7 20 -28 33 -20 12 -36 25 -36 30 0 13 347 12 355 -1z m937 3 c-6 -2 -9 -10
-5 -16 4 -7 -1 -6 -10 2 -22 18 -21 21 6 20 12 0 16 -3 9 -6z m-2237 -12 c3
-5 1 -12 -5 -16 -5 -3 -10 -2 -10 4 0 5 -8 12 -17 14 -14 4 -13 5 4 6 12 0 24
-3 28 -8z m953 -14 c8 -10 7 -13 -7 -14 -10 -1 -18 5 -18 13 0 17 11 18 25 1z
m-5233 -85 c-6 -7 -35 18 -35 31 0 5 9 2 20 -8 11 -10 18 -20 15 -23z m6379
-107 c3 -8 1 -15 -4 -15 -6 0 -10 7 -10 15 0 8 2 15 4 15 2 0 6 -7 10 -15z
m-4167 -67 c-2 -13 -4 -3 -4 22 0 25 2 35 4 23 2 -13 2 -33 0 -45z m4146 -13
c-3 -9 -8 -14 -10 -11 -3 3 -2 9 2 15 9 16 15 13 8 -4z m-3706 -127 c-3 -8 -6
-5 -6 6 -1 11 2 17 5 13 3 -3 4 -12 1 -19z m1590 -217 c5 -35 3 -41 -13 -41
-16 0 -17 2 -4 10 13 9 13 10 0 10 -12 0 -12 2 -2 9 9 5 11 17 7 34 -4 15 -10
25 -14 22 -4 -2 -8 3 -8 11 0 32 29 -13 34 -55z m-1630 17 c-3 -8 -6 -5 -6 6
-1 11 2 17 5 13 3 -3 4 -12 1 -19z m0 -40 c-3 -8 -6 -5 -6 6 -1 11 2 17 5 13
3 -3 4 -12 1 -19z m1606 -58 c3 -12 0 -20 -8 -20 -8 0 -11 8 -8 20 3 11 7 20
8 20 1 0 5 -9 8 -20z m-333 -6 c0 -8 -19 -13 -24 -6 -3 5 1 9 9 9 8 0 15 -2
15 -3z m217 -40 c-3 -3 -12 -4 -19 -1 -8 3 -5 6 6 6 11 1 17 -2 13 -5z m-1635
-116 c-6 -6 -7 0 -4 19 5 21 7 23 10 9 2 -10 0 -22 -6 -28z m68 -52 c0 -11
-19 -15 -25 -6 -3 5 1 10 9 10 9 0 16 -2 16 -4z m-137 -43 c-7 -2 -19 -2 -25
0 -7 3 -2 5 12 5 14 0 19 -2 13 -5z m227 -3 c0 -5 -8 -10 -17 -10 -15 0 -16 2
-3 10 19 12 20 12 20 0z m83 3 c-7 -2 -21 -2 -30 0 -10 3 -4 5 12 5 17 0 24
-2 18 -5z m44 1 c-3 -3 -12 -4 -19 -1 -8 3 -5 6 6 6 11 1 17 -2 13 -5z m1453
-204 c583 -19 1205 -59 1860 -120 58 -5 134 -12 170 -16 80 -7 203 -23 207
-28 2 -2 19 -25 38 -52 26 -36 31 -50 21 -52 -8 -2 -135 8 -283 22 -256 24
-721 64 -998 86 -118 9 -272 17 -975 51 -399 20 -1960 17 -2450 -4 -661 -28
-1345 -78 -1955 -142 -232 -25 -224 -26 -185 10 12 10 30 33 41 51 12 19 31
35 47 38 32 7 371 38 712 66 135 11 324 27 420 35 324 27 895 54 1450 69 230
6 1573 -4 1880 -14z m-4400 -41 c0 -6 -4 -7 -10 -4 -5 3 -10 11 -10 16 0 6 5
7 10 4 6 -3 10 -11 10 -16z m5373 14 c-7 -2 -19 -2 -25 0 -7 3 -2 5 12 5 14 0
19 -2 13 -5z m-1870 -194 c32 -14 33 -20 9 -49 -15 -19 -22 -21 -40 -11 -53
28 -112 1 -112 -52 0 -43 25 -67 72 -67 31 0 38 3 38 20 0 14 -7 20 -21 20
-15 0 -20 5 -17 23 3 20 9 22 56 22 28 0 52 -3 52 -7 0 -5 0 -36 0 -71 0 -70
8 -64 -100 -73 -78 -6 -123 16 -146 71 -55 133 70 237 209 174z m-1131 -86 l3
-98 59 -3 c32 -2 64 2 69 7 19 19 22 12 19 -35 -3 -35 -7 -44 -19 -40 -8 3
-60 6 -116 6 l-102 0 0 130 0 130 42 0 42 0 3 -97z m478 60 c0 -23 -4 -33 -9
-27 -6 5 -42 8 -80 6 -56 -3 -71 -7 -71 -19 0 -13 9 -14 55 -8 l55 6 0 -41 0
-42 -52 4 c-42 2 -53 0 -56 -13 -2 -13 11 -17 74 -22 49 -5 82 -3 90 3 10 9
11 2 7 -32 -3 -24 -6 -43 -7 -43 0 0 -55 1 -121 3 l-120 3 0 130 0 129 118 0
117 0 0 -37z m320 -50 c19 -47 45 -106 56 -130 l21 -43 -43 0 c-37 0 -43 3
-46 23 -3 20 -8 22 -68 22 -60 0 -65 -2 -68 -22 -3 -20 -9 -23 -47 -23 l-43 0
32 83 c18 45 42 103 54 130 21 47 21 47 69 47 l48 0 35 -87z m532 21 c-6 -100
23 -147 79 -129 28 9 39 44 39 126 l0 69 35 0 35 0 -3 -99 c-2 -94 -4 -101
-30 -129 -50 -53 -147 -51 -198 4 -21 23 -25 37 -29 125 l-5 99 40 0 40 0 -3
-66z m518 37 c0 -25 -4 -30 -22 -29 -79 5 -138 -3 -138 -17 0 -12 13 -15 55
-15 l55 0 0 -36 0 -36 -55 4 c-47 4 -55 2 -55 -13 0 -14 12 -19 65 -24 36 -4
74 -5 86 -2 18 5 20 1 17 -31 -2 -22 -8 -37 -15 -36 -7 1 -64 2 -125 2 l-113
2 3 130 3 130 120 0 119 0 0 -29z m-3176 -150 c304 -88 877 -192 1296 -235
382 -39 1153 -53 1575 -27 525 31 1345 166 1648 270 57 20 64 20 185 6 70 -8
134 -15 142 -16 29 -1 -276 -91 -490 -144 -398 -99 -861 -174 -1335 -216 -198
-17 -1060 -23 -1325 -10 -637 34 -1262 136 -1855 302 -180 51 -226 67 -195 70
8 0 60 6 115 13 55 7 108 14 119 15 10 0 64 -12 120 -28z"/>
<path d="M5126 8955 c-3 -13 -16 -30 -29 -36 -32 -17 -32 -17 -13 -38 13 -15
15 -23 6 -47 l-11 -29 25 24 c24 23 26 23 51 7 25 -16 25 -16 25 11 0 15 10
37 22 50 l21 23 -27 0 c-22 0 -30 7 -39 30 -14 36 -23 38 -31 5z"/>
<path d="M4575 8938 c-8 -26 -17 -34 -40 -39 -29 -5 -29 -5 -7 -13 21 -7 23
-12 17 -44 l-7 -35 27 17 c25 16 28 16 52 1 l25 -17 -7 30 c-5 25 -2 33 17 43
l23 13 -30 6 c-21 4 -34 15 -45 38 l-16 32 -9 -32z"/>
<path d="M4636 8657 c-10 -7 -16 -22 -14 -33 5 -27 81 -28 86 -1 8 39 -36 60
-72 34z"/>
<path d="M4821 8652 c-14 -27 8 -55 40 -50 19 2 24 9 24 33 0 25 -4 31 -27 33
-18 2 -30 -3 -37 -16z"/>
<path d="M5094 8656 c-12 -32 1 -51 36 -54 41 -4 65 20 49 49 -12 23 -77 27
-85 5z"/>
<path d="M5438 7643 c7 -3 16 -2 19 1 4 3 -2 6 -13 5 -11 0 -14 -3 -6 -6z"/>
<path d="M5659 7398 c5 -36 -2 -165 -11 -197 -2 -5 1 -11 6 -13 25 -9 49 193
24 208 -4 3 -8 14 -8 25 0 10 -4 19 -8 19 -5 0 -6 -19 -3 -42z"/>
<path d="M7196 5328 c-3 -13 -5 -41 -5 -63 1 -33 3 -29 9 20 8 63 7 81 -4 43z"/>
<path d="M4200 4619 c0 -219 -100 -388 -309 -520 -79 -51 -90 -60 -61 -55 70
13 180 74 246 138 114 109 161 236 151 407 -7 124 -27 146 -27 30z"/>
<path d="M6006 4292 c-15 -42 -44 -110 -62 -151 -38 -83 -39 -110 -1 -34 31
62 99 242 95 253 -2 5 -16 -26 -32 -68z"/>
<path d="M6102 4358 c-11 -15 -62 -115 -62 -123 0 -10 18 -5 23 8 3 6 17 38
31 70 26 56 28 69 8 45z"/>
<path d="M6105 4275 c-26 -55 -66 -131 -88 -168 -22 -37 -37 -70 -34 -73 15
-15 183 303 174 329 -2 7 -25 -33 -52 -88z"/>
<path d="M6005 4170 c-17 -30 -32 -59 -34 -65 -2 -5 -10 -24 -18 -42 -8 -18
-13 -38 -10 -45 6 -18 99 170 95 190 -3 11 -15 -3 -33 -38z"/>
<path d="M5814 4638 c-11 -35 -24 -70 -28 -79 -9 -20 43 -47 54 -28 14 21 54
148 50 153 -3 2 -16 7 -30 10 -23 6 -26 2 -46 -56z"/>
<path d="M5733 3778 c-29 -44 -38 -65 -30 -71 40 -26 337 -97 406 -97 23 0 39
13 85 69 31 37 56 70 56 73 0 3 -30 8 -67 12 -55 6 -229 38 -383 72 -23 5 -31
-2 -67 -58z"/>
<path d="M6528 3583 c6 -3 12 -9 12 -14 0 -6 -4 -7 -10 -4 -17 10 -11 -12 7
-26 15 -13 12 -15 -23 -20 l-39 -6 37 -2 c26 -1 40 4 47 17 14 23 14 6 1 -19
-15 -27 11 -26 35 1 17 19 17 20 2 14 -12 -4 -17 -2 -15 7 2 8 -7 15 -19 17
-18 3 -21 7 -14 21 8 13 5 17 -12 18 -12 0 -16 -1 -9 -4z"/>
<path d="M6388 3453 c7 -3 16 -2 19 1 4 3 -2 6 -13 5 -11 0 -14 -3 -6 -6z"/>
<path d="M6490 3440 c0 -5 14 -10 30 -10 17 0 30 5 30 10 0 6 -13 10 -30 10
-16 0 -30 -4 -30 -10z"/>
<path d="M2290 2459 l0 -351 33 5 c17 3 85 11 149 18 65 7 116 15 113 18 -2 4
13 6 34 6 45 0 85 25 111 68 20 33 30 107 10 77 -8 -13 -10 -12 -10 3 0 9 7
17 15 17 12 0 15 14 15 70 0 45 -4 70 -11 70 -8 0 -10 26 -7 86 2 47 1 87 -4
90 -4 3 -8 11 -8 17 0 7 4 6 10 -3 9 -13 10 -13 10 0 0 38 -23 89 -51 116 -18
16 -29 23 -24 15 5 -9 3 -12 -4 -10 -7 3 -12 8 -11 13 4 21 -35 26 -197 26
l-173 0 0 -351z m405 301 c3 -5 1 -10 -4 -10 -6 0 -11 5 -11 10 0 6 2 10 4 10
3 0 8 -4 11 -10z m-34 -583 c-10 -9 -11 -8 -5 6 3 10 9 15 12 12 3 -3 0 -11
-7 -18z"/>
<path d="M4245 2521 c-3 -5 -1 -12 5 -16 5 -3 10 1 10 9 0 18 -6 21 -15 7z"/>
<path d="M4970 2802 c-18 -15 -25 -37 -36 -113 -7 -52 -13 -100 -14 -106 0
-10 51 -13 221 -13 l222 0 -7 46 c-3 26 -6 71 -6 101 0 33 -4 52 -10 48 -5 -3
-7 0 -4 8 3 9 -4 22 -18 31 -18 13 -51 16 -174 16 -132 0 -155 -2 -174 -18z
m365 -212 c13 -6 -7 -8 -60 -8 -77 1 -78 2 -25 8 30 4 57 7 60 8 3 0 14 -3 25
-8z m-182 -7 c-7 -2 -19 -2 -25 0 -7 3 -2 5 12 5 14 0 19 -2 13 -5z"/>
<path d="M4911 1499 c-6 -18 -11 -34 -11 -35 0 -2 14 -4 30 -4 17 0 30 2 30 5
0 9 -30 65 -34 65 -2 0 -9 -14 -15 -31z"/>
<path d="M3902 9330 c-7 -11 -8 -20 -3 -20 9 0 24 30 18 36 -1 2 -8 -6 -15
-16z"/>
<path d="M4923 9194 c10 -10 -36 -42 -52 -36 -10 4 -12 1 -6 -8 6 -10 4 -12
-8 -7 -46 19 -53 19 -33 3 30 -24 53 -19 94 19 30 28 33 35 18 35 -11 0 -17
-3 -13 -6z"/>
</g>
</svg>
